<svg width="16" height="16" viewBox="0 0 16 16" fill="none" xmlns="http://www.w3.org/2000/svg">
<path d="M13.2961 2.70389C12.3575 1.76537 10.8154 1.76537 9.84328 2.70389C9.17329 3.37456 8.40187 5.8887 8.00045 7.29647C7.63117 5.92155 6.86046 3.37456 6.15619 2.70389C5.21763 1.76537 3.67551 1.76537 2.7041 2.70389C1.76554 3.6424 1.76554 5.18445 2.7041 6.15654C3.37409 6.8265 5.88833 7.59788 7.29617 8C5.92191 8.36855 3.3748 9.13922 2.70338 9.84346C1.76554 10.782 1.76554 12.324 2.70338 13.2961C3.64265 14.2346 5.18406 14.2346 6.15619 13.2961C6.82689 12.6254 7.59759 10.1113 7.99973 8.70353C8.3683 10.0784 9.13972 12.6254 9.84328 13.2961C10.7818 14.2346 12.324 14.2346 13.2961 13.2961C14.2346 12.3576 14.2346 10.8155 13.2961 9.84346C12.6254 9.17279 10.1118 8.40212 8.70329 8C10.0783 7.63145 12.6254 6.86007 13.2961 6.15654C14.2346 5.18517 14.2346 3.6424 13.2961 2.70389Z" fill="black" stroke="black"/>
</svg>
