<?xml version="1.0" encoding="utf-8"?>
<!-- Generator: Adobe Illustrator 24.0.2, SVG Export Plug-In . SVG Version: 6.00 Build 0)  -->
<svg version="1.1" id="Layer_1" xmlns="http://www.w3.org/2000/svg" xmlns:xlink="http://www.w3.org/1999/xlink" x="0px" y="0px"
	 viewBox="0 0 81 20" style="enable-background:new 0 0 81 20;" xml:space="preserve">
<g>
	<path d="M15.6,15.2c0,0-0.1,0.1-0.2,0.1c-0.3,0-1,0.1-2,0.1c-0.9,0-1.6,0-1.9-0.1c-0.2,0-0.2,0-0.3,0c0,0-0.1-0.1-0.1-0.2
		c-0.1-0.2-0.3-0.6-0.5-1c-0.3-0.6-0.7-1.4-1.3-2.6c-0.1-0.2-0.4-0.3-0.9-0.4c0.2,0-0.2,0-1.1,0c-0.1,0-0.2,0.1-0.2,0.4
		c0,0.4,0,1,0.1,1.8c0.1,0.8,0.1,1.4,0.1,1.8c0,0.1,0,0.2-0.1,0.2c-0.1,0-0.2,0-0.3,0c-0.4,0-1.1,0-2,0c-1,0-1.6,0-1.8-0.1
		c-0.2,0-0.3-0.1-0.3-0.3c0-0.6,0-1.6,0.1-2.9C3,10.8,3.1,9.9,3.1,9.2c0-2.4-0.1-4.3-0.2-5.7l0-0.1c0-0.1,0.1-0.2,0.3-0.2
		c0.2,0,1.3-0.1,3.3-0.1c1.3,0,2.4,0,3.2,0c1.6,0,3,0.3,4,0.9c1.2,0.7,1.7,1.6,1.7,2.9c0,0.8-0.2,1.5-0.5,2c-0.3,0.5-0.9,1-1.7,1.5
		c-0.2,0.1-0.2,0.2-0.2,0.3c0,0,0.4,0.7,1.3,2.2C15.2,14.2,15.6,15,15.6,15.2z M11.1,7.4c0-0.7-0.3-1.2-0.9-1.5
		C9.8,5.7,9.1,5.6,8.2,5.6c-0.7,0-1,0.1-1.1,0.3C7,6.1,7,6.6,7,7.6c0,0.1,0,0.3,0,0.6c0,0.3,0,0.5,0,0.6c0,0,0.1,0.1,0.3,0.1
		c0.4,0.1,0.9,0.1,1.4,0.1C10.3,8.9,11.1,8.4,11.1,7.4z"/>
	<path d="M26.6,10.6c0,0.6-0.2,0.9-0.7,1c-0.1,0-0.8,0.1-2.2,0.2c-0.8,0.1-2.1,0.2-3.8,0.3c0.1,0.4,0.4,0.7,0.9,0.9
		c0.4,0.2,0.9,0.2,1.4,0.2c0.6,0,1.3-0.1,1.9-0.4c0.3-0.1,0.5-0.3,0.8-0.4c0.2,0.1,0.4,0.4,0.8,0.9c0.4,0.5,0.5,0.9,0.5,1
		c0,0-0.1,0.1-0.2,0.2c-0.9,0.8-2.2,1.1-4.1,1.1c-1.7,0-3.1-0.4-4.1-1.2c-1.1-0.8-1.6-1.9-1.6-3.3c0-1.3,0.5-2.4,1.4-3.3
		c1-0.9,2.3-1.3,3.9-1.3c1.4,0,2.5,0.4,3.5,1.2C26.1,8.5,26.6,9.4,26.6,10.6z M22.8,10c0-0.4-0.2-0.7-0.5-0.9s-0.7-0.4-1.1-0.4
		c-0.5,0-0.8,0.2-1.1,0.5c-0.3,0.3-0.4,0.6-0.4,1c0,0.2,0.1,0.2,0.3,0.2c0.5,0,1.4-0.1,2.5-0.2C22.7,10.1,22.8,10.1,22.8,10z"/>
	<path d="M38.4,13c0,1.6-0.4,2.8-1.3,3.5c-0.9,0.7-2.4,1.1-4.4,1.1c-0.6,0-1.4-0.1-2.5-0.2c-1.3-0.2-2-0.4-2-0.7
		c0-0.1,0.2-0.7,0.5-1.7c0-0.2,0.1-0.2,0.2-0.2c0,0,0.1,0,0.1,0c1.1,0.4,2.1,0.7,3.1,0.7c0.5,0,1-0.1,1.5-0.3
		c0.6-0.2,0.9-0.6,0.9-0.9v-0.6c-0.7,0.6-1.7,0.8-2.8,0.8c-1.3,0-2.4-0.4-3.3-1.2c-0.8-0.8-1.3-1.7-1.3-2.8c0-1.1,0.4-2,1.2-2.7
		c0.8-0.8,1.9-1.1,3.3-1.1c1.1,0,1.9,0.3,2.5,0.9c0.1,0.1,0.2,0.2,0.2,0.2c0.1,0,0.1-0.1,0.1-0.3c0-0.5,0.1-0.7,0.2-0.7
		c0.1,0,0.7,0,1.9,0.1s1.7,0.1,1.7,0.2c0.1,0,0.2,0.1,0.2,0.2c0,0.4,0,1,0,1.8s0,1.4,0,1.8c0,0.2,0,0.6,0,1.1
		C38.4,12.4,38.4,12.8,38.4,13z M34.7,10.6c0-0.4-0.2-0.8-0.5-1.1c-0.3-0.3-0.8-0.5-1.3-0.5s-1,0.2-1.3,0.5
		c-0.3,0.3-0.5,0.7-0.5,1.1c0,0.4,0.2,0.8,0.5,1.1c0.4,0.3,0.8,0.5,1.3,0.5c0.5,0,1-0.2,1.3-0.5C34.5,11.4,34.7,11,34.7,10.6z"/>
	<path d="M51.3,7.4c0,0.4,0,1.1-0.1,1.9c0,0.9-0.1,1.5-0.1,1.9c0,0.4,0,1,0.1,1.9c0,0.8,0.1,1.5,0.1,1.9c0,0.2-0.1,0.3-0.3,0.3
		c-0.3,0.1-0.8,0.1-1.7,0.1c-0.8,0-1.3,0-1.6-0.1c-0.1,0-0.2-0.1-0.3-0.2c0-0.2,0-0.3-0.1-0.5c0-0.3-0.1-0.4-0.1-0.4
		c0.1,0-0.3,0.2-1.1,0.6c-0.8,0.4-1.6,0.6-2.2,0.6c-1.9,0-3-0.7-3.4-2.1c-0.2-0.6-0.2-1.6-0.2-2.8c0-1.3,0.1-2.4,0.4-3.1
		C40.7,7.1,40.9,7,41.1,7c0.3,0,0.8,0,1.5,0c0.7,0,1.2,0,1.5,0c0.2,0,0.3,0.1,0.3,0.2c0,0,0,0.1,0,0.2c-0.2,0.8-0.2,1.6-0.2,2.4
		c0,1,0,1.7,0.1,2.1c0.1,0.6,0.6,1,1.4,1c0.3,0,0.7-0.1,1-0.3c0.4-0.2,0.6-0.5,0.6-0.7c0-0.2,0-1.7,0-4.3c0-0.2,0-0.3,0.1-0.3
		c0-0.1,0.2-0.1,0.4-0.1c0.4,0,0.9,0,1.6,0c0.7,0,1.2,0,1.6,0c0.2,0,0.3,0,0.4,0.1C51.3,7.2,51.3,7.3,51.3,7.4z"/>
	<path d="M57,10c0,1.6,0,2.8,0,3.6c0,0.1,0,0.4,0,0.7c0,0.3,0,0.5,0,0.7c0,0.1-0.1,0.2-0.3,0.2c-0.3,0-0.9,0.1-1.7,0.1
		c-0.9,0-1.4,0-1.6-0.1c-0.2,0-0.2-0.1-0.3-0.2c0,0,0-0.1,0-0.4c0-0.5,0-1.3,0-2.3c0-1,0-1.8,0-2.3c0-2.4,0-3.5,0-3.3
		c0-1.3-0.1-2.4-0.3-3.3c0-0.1,0-0.1,0-0.1c0-0.1,0.1-0.2,0.3-0.2H57c0.2,0,0.3,0.1,0.2,0.2l0,0.2C57.1,5.9,57,8.1,57,10z"/>
	<path d="M69.7,10.9c0,0.4,0,1.1,0.1,2c0.1,0.9,0.1,1.5,0.1,2c0,0.2-0.1,0.4-0.4,0.4c-0.9,0.1-1.9,0.1-3,0.1c-0.1,0-0.2-0.2-0.3-0.5
		c0-0.3-0.1-0.5-0.2-0.5c-0.1,0-0.1,0.1-0.2,0.1c-0.8,0.7-1.7,1-2.6,1c-1.4,0-2.5-0.4-3.5-1.3c-0.9-0.8-1.3-1.8-1.3-3
		c0-1.3,0.4-2.4,1.3-3.2c0.9-0.8,2.2-1.3,3.8-1.3c1.1,0,2,0.3,2.7,1c0,0,0.1,0,0.1,0c0.1,0,0.1-0.1,0.2-0.4s0.2-0.4,0.3-0.4
		c0.3,0,0.8,0.1,1.5,0.2c0.7,0.1,1.2,0.2,1.5,0.3c0.1,0,0.2,0.1,0.2,0.1c0,0,0,0.1,0,0.2C69.8,8.7,69.7,9.8,69.7,10.9z M66.2,11
		c0-0.5-0.2-0.9-0.6-1.2c-0.4-0.3-0.9-0.5-1.5-0.5s-1.1,0.2-1.5,0.5c-0.4,0.3-0.6,0.7-0.6,1.2c0,0.5,0.2,0.9,0.6,1.2
		c0.4,0.3,0.9,0.5,1.5,0.5c0.6,0,1.1-0.2,1.5-0.5C66.1,11.9,66.2,11.5,66.2,11z"/>
	<path d="M78.9,9.9c0,0.2-0.2,0.3-0.5,0.3c-0.1,0-0.3,0-0.6,0c-0.3,0-0.5,0-0.6,0c-0.6,0-1,0.1-1.2,0.2c-0.2,0.2-0.3,0.5-0.3,0.9
		c0,0.2,0,0.6,0,1.1c0,0.5,0,0.9,0,1.1c0,0.2,0,0.4,0,0.7s0,0.6,0,0.7c0,0.1-0.1,0.2-0.4,0.2c-0.3,0-0.9,0-1.6,0
		c-0.7,0-1.2,0-1.6-0.1c-0.2,0-0.4-0.1-0.4-0.3c0-0.5,0-1.2,0-2.1c0-0.9,0-1.6,0-2.1c0-1.4-0.2-2.5-0.5-3.4c0-0.1,0-0.1,0-0.1
		c0-0.1,0.1-0.1,0.2-0.2c0.4,0,1-0.1,1.7-0.2c1.1-0.2,1.7-0.3,1.7-0.3c0.1,0,0.2,0.2,0.2,0.5s0.1,0.5,0.2,0.5
		c-0.1,0,0.2-0.2,0.9-0.5c0.7-0.3,1.3-0.5,2-0.5C78.8,6.9,79,7,79,7.1c0,0.2,0,0.4-0.1,0.7c0,0.3-0.1,0.6-0.1,0.7c0,0.2,0,0.4,0,0.7
		C78.9,9.5,78.9,9.8,78.9,9.9z"/>
</g>
</svg>
